<svg xmlns="http://www.w3.org/2000/svg" width="1280" height="460" viewBox="0 0 1280 460" role="img" aria-labelledby="title desc">
  <title id="title">The Wizard's Brush</title>
  <desc id="desc">A dark atelier-inspired banner connecting local and remote GPU creation to a private asset library.</desc>
  <defs>
    <linearGradient id="bg" x1="0" y1="0" x2="1" y2="1">
      <stop offset="0" stop-color="#0d0e0c"/>
      <stop offset="0.6" stop-color="#151811"/>
      <stop offset="1" stop-color="#10141c"/>
    </linearGradient>
    <linearGradient id="stroke" x1="0" y1="0" x2="1" y2="0">
      <stop offset="0" stop-color="#ff704d"/>
      <stop offset="1" stop-color="#7aa2f7"/>
    </linearGradient>
    <radialGradient id="glow" cx="50%" cy="50%" r="50%">
      <stop offset="0" stop-color="#ff704d" stop-opacity=".24"/>
      <stop offset="1" stop-color="#ff704d" stop-opacity="0"/>
    </radialGradient>
    <filter id="blur"><feGaussianBlur stdDeviation="26"/></filter>
  </defs>
  <rect width="1280" height="460" rx="24" fill="url(#bg)"/>
  <path d="M1 23Q1 1 23 1h1234q22 0 22 22v414q0 22-22 22H23q-22 0-22-22z" fill="none" stroke="#30342c" stroke-width="2"/>
  <circle cx="1065" cy="80" r="160" fill="#7aa2f7" opacity=".08" filter="url(#blur)"/>
  <circle cx="207" cy="345" r="180" fill="url(#glow)" filter="url(#blur)"/>
  <g fill="none" stroke="#30342c" opacity=".55">
    <path d="M0 92h1280M0 368h1280"/>
    <path d="M74 0v460M1206 0v460"/>
  </g>
  <g transform="translate(86 86)" stroke="#ff704d" fill="none">
    <path d="M0 0h76l31 31v64H0z" fill="#ff704d" opacity=".11" stroke="none"/>
    <path d="M4 4h75l28 28" stroke-width="5"/>
    <path d="m17 78 69-69M42 99l69-69" stroke-width="13"/>
    <path d="M8 116h69" stroke-width="5"/>
  </g>
  <g fill="#f1efe7" font-family="Georgia, 'Times New Roman', serif">
    <text x="236" y="132" font-size="64" letter-spacing="-1.5">The Wizard's Brush</text>
  </g>
  <text x="240" y="176" fill="#a5a69d" font-family="Arial, sans-serif" font-size="22" letter-spacing="1.4">A LOCAL-FIRST IMAGE AND VIDEO ATELIER</text>
  <path d="M240 204h528" stroke="url(#stroke)" stroke-width="3"/>
  <g transform="translate(238 247)" font-family="Arial, sans-serif">
    <g>
      <rect width="258" height="112" rx="10" fill="#1a1d18" stroke="#30342c"/>
      <circle cx="29" cy="29" r="6" fill="#65c98b"/>
      <text x="47" y="34" fill="#f1efe7" font-size="15" font-weight="700" letter-spacing="1">CREATE</text>
      <text x="22" y="65" fill="#a5a69d" font-size="14">Prompt, edit, inpaint, outpaint</text>
      <text x="22" y="89" fill="#a5a69d" font-size="14">Local NVIDIA GPU</text>
    </g>
    <g transform="translate(278)">
      <rect width="258" height="112" rx="10" fill="#1a1d18" stroke="#30342c"/>
      <circle cx="29" cy="29" r="6" fill="#7aa2f7"/>
      <text x="47" y="34" fill="#f1efe7" font-size="15" font-weight="700" letter-spacing="1">EXTEND</text>
      <text x="22" y="65" fill="#a5a69d" font-size="14">Optional remote image + video</text>
      <text x="22" y="89" fill="#a5a69d" font-size="14">Your hardware, your endpoint</text>
    </g>
    <g transform="translate(556)">
      <rect width="258" height="112" rx="10" fill="#1a1d18" stroke="#30342c"/>
      <circle cx="29" cy="29" r="6" fill="#ff704d"/>
      <text x="47" y="34" fill="#f1efe7" font-size="15" font-weight="700" letter-spacing="1">KEEP</text>
      <text x="22" y="65" fill="#a5a69d" font-size="14">Durable queue + private library</text>
      <text x="22" y="89" fill="#a5a69d" font-size="14">Metadata you control</text>
    </g>
  </g>
  <g transform="translate(1090 235)" fill="none" stroke-linecap="round">
    <circle r="78" fill="#121411" stroke="#30342c"/>
    <circle r="47" stroke="#30342c" stroke-dasharray="3 8"/>
    <path d="M-24 20 25-29M-4 40 45-9" stroke="#ff704d" stroke-width="9"/>
    <path d="M-33 48h50" stroke="#ff704d" stroke-width="3"/>
    <path d="M-54-18h55l23 23" stroke="#7aa2f7" stroke-width="3"/>
  </g>
  <text x="86" y="416" fill="#73766d" font-family="ui-monospace, monospace" font-size="14">APACHE-2.0 SOFTWARE  /  PROJECT-CONTAINED RUNTIME  /  HUMAN-READABLE WORKFLOWS</text>
</svg>
